HIERARCHY
ROOT Hips
{
	OFFSET -395.402618 89.000679 -566.678650
	CHANNELS 6 Xposition Yposition Zposition Zrotation Yrotation Xrotation 
	JOINT Spine
	{
		OFFSET -0.000000 8.814246 -2.080107
		CHANNELS 3 Zrotation Yrotation Xrotation
		JOINT Spine1
		{
			OFFSET 0.000000 8.844141 0.000000
			CHANNELS 3 Zrotation Yrotation Xrotation
			JOINT Spine2
			{
				OFFSET 0.000000 11.682268 -0.000000
				CHANNELS 3 Zrotation Yrotation Xrotation
				JOINT Spine3
				{
					OFFSET 0.000000 11.746700 0.000000
					CHANNELS 3 Zrotation Yrotation Xrotation
					JOINT Neck
					{
						OFFSET 0.000000 17.658264 -0.000000
						CHANNELS 3 Zrotation Yrotation Xrotation
						JOINT Neck1
						{
							OFFSET 0.000000 5.101515 -0.000000
							CHANNELS 3 Zrotation Yrotation Xrotation
							JOINT Head
							{
								OFFSET -0.000000 5.101515 0.000000
								CHANNELS 3 Zrotation Yrotation Xrotation
								JOINT HeadEnd
								{
									OFFSET 0.000000 11.655085 -0.000000
									CHANNELS 3 Zrotation Yrotation Xrotation
									End Site
									{
										OFFSET 0.000000 0.000000 0.000000
									}
								}
							}
						}
					}
					JOINT RightShoulder
					{
						OFFSET -2.625389 11.175210 -0.000000
						CHANNELS 3 Zrotation Yrotation Xrotation
						JOINT RightArm
						{
							OFFSET -0.000000 10.434715 0.000000
							CHANNELS 3 Zrotation Yrotation Xrotation
							JOINT RightForeArm
							{
								OFFSET -0.000000 29.628420 -0.000000
								CHANNELS 3 Zrotation Yrotation Xrotation
								JOINT RightHand
								{
									OFFSET -0.000000 22.857611 0.000000
									CHANNELS 3 Zrotation Yrotation Xrotation
									JOINT RightHandThumb1
									{
										OFFSET -2.867323 3.959563 2.944291
										CHANNELS 3 Zrotation Yrotation Xrotation
										JOINT RightHandThumb2
										{
											OFFSET -0.000000 3.350399 0.000000
											CHANNELS 3 Zrotation Yrotation Xrotation
											JOINT RightHandThumb3
											{
												OFFSET -0.000000 3.756509 0.000000
												CHANNELS 3 Zrotation Yrotation Xrotation
												JOINT RightHandThumb4
												{
													OFFSET 0.000000 3.147345 0.000000
													CHANNELS 3 Zrotation Yrotation Xrotation
													End Site
													{
														OFFSET 0.000000 0.000000 0.000000
													}
												}
											}
										}
									}
									JOINT RightHandIndex1
									{
										OFFSET -0.086752 10.030893 2.345280
										CHANNELS 3 Zrotation Yrotation Xrotation
										JOINT RightHandIndex2
										{
											OFFSET -0.000000 4.061090 0.000000
											CHANNELS 3 Zrotation Yrotation Xrotation
											JOINT RightHandIndex3
											{
												OFFSET 0.000000 3.248873 -0.000000
												CHANNELS 3 Zrotation Yrotation Xrotation
												JOINT RightHandIndex4
												{
													OFFSET 0.000000 2.639709 -0.000000
													CHANNELS 3 Zrotation Yrotation Xrotation
													End Site
													{
														OFFSET 0.000000 0.000000 0.000000
													}
												}
											}
										}
									}
									JOINT RightHandMiddle1
									{
										OFFSET 0.104102 9.502952 0.006768
										CHANNELS 3 Zrotation Yrotation Xrotation
										JOINT RightHandMiddle2
										{
											OFFSET 0.000000 4.568727 -0.000000
											CHANNELS 3 Zrotation Yrotation Xrotation
											JOINT RightHandMiddle3
											{
												OFFSET -0.000000 3.654981 0.000000
												CHANNELS 3 Zrotation Yrotation Xrotation
												JOINT RightHandMiddle4
												{
													OFFSET -0.000000 2.741236 0.000000
													CHANNELS 3 Zrotation Yrotation Xrotation
													End Site
													{
														OFFSET 0.000000 0.000000 0.000000
													}
												}
											}
										}
									}
									JOINT RightHandRing1
									{
										OFFSET 0.086752 8.921708 -2.267442
										CHANNELS 3 Zrotation Yrotation Xrotation
										JOINT RightHandRing2
										{
											OFFSET 0.000000 4.061090 0.000000
											CHANNELS 3 Zrotation Yrotation Xrotation
											JOINT RightHandRing3
											{
												OFFSET -0.000000 3.654981 0.000000
												CHANNELS 3 Zrotation Yrotation Xrotation
												JOINT RightHandRing4
												{
													OFFSET -0.000000 2.741236 0.000000
													CHANNELS 3 Zrotation Yrotation Xrotation
													End Site
													{
														OFFSET 0.000000 0.000000 0.000000
													}
												}
											}
										}
									}
									JOINT RightHandPinky1
									{
										OFFSET -0.173504 7.976997 -4.467199
										CHANNELS 3 Zrotation Yrotation Xrotation
										JOINT RightHandPinky2
										{
											OFFSET -0.000000 3.350399 0.000000
											CHANNELS 3 Zrotation Yrotation Xrotation
											JOINT RightHandPinky3
											{
												OFFSET 0.000000 2.842763 -0.000000
												CHANNELS 3 Zrotation Yrotation Xrotation
												JOINT RightHandPinky4
												{
													OFFSET -0.000000 2.639709 0.000000
													CHANNELS 3 Zrotation Yrotation Xrotation
													End Site
													{
														OFFSET 0.000000 0.000000 0.000000
													}
												}
											}
										}
									}
									JOINT RightForeArmEnd
									{
										OFFSET 0.000000 0.000000 0.000000
										CHANNELS 3 Zrotation Yrotation Xrotation
										End Site
										{
											OFFSET 0.000000 0.000000 0.000000
										}
									}
								}
								JOINT RightArmEnd
								{
									OFFSET 0.000000 0.000000 0.000000
									CHANNELS 3 Zrotation Yrotation Xrotation
									End Site
									{
										OFFSET 0.000000 0.000000 0.000000
									}
								}
							}
						}
					}
					JOINT LeftShoulder
					{
						OFFSET 2.625389 11.175210 -0.000000
						CHANNELS 3 Zrotation Yrotation Xrotation
						JOINT LeftArm
						{
							OFFSET 0.000000 10.813635 0.000000
							CHANNELS 3 Zrotation Yrotation Xrotation
							JOINT LeftForeArm
							{
								OFFSET 0.000000 28.724781 -0.000000
								CHANNELS 3 Zrotation Yrotation Xrotation
								JOINT LeftHand
								{
									OFFSET 0.644384 25.716167 -0.328871
									CHANNELS 3 Zrotation Yrotation Xrotation
									JOINT LeftHandThumb1
									{
										OFFSET 2.867323 3.959563 2.944291
										CHANNELS 3 Zrotation Yrotation Xrotation
										JOINT LeftHandThumb2
										{
											OFFSET -0.000000 3.350399 -0.000000
											CHANNELS 3 Zrotation Yrotation Xrotation
											JOINT LeftHandThumb3
											{
												OFFSET 0.000000 3.756509 0.000000
												CHANNELS 3 Zrotation Yrotation Xrotation
												JOINT LeftHandThumb4
												{
													OFFSET -0.000000 3.100000 -0.000000
													CHANNELS 3 Zrotation Yrotation Xrotation
													End Site
													{
														OFFSET 0.000000 0.000000 0.000000
													}
												}
											}
										}
									}
									JOINT LeftHandIndex1
									{
										OFFSET 0.086752 10.030893 2.345280
										CHANNELS 3 Zrotation Yrotation Xrotation
										JOINT LeftHandIndex2
										{
											OFFSET 0.000000 4.061090 -0.000000
											CHANNELS 3 Zrotation Yrotation Xrotation
											JOINT LeftHandIndex3
											{
												OFFSET 0.000000 3.248873 0.000000
												CHANNELS 3 Zrotation Yrotation Xrotation
												JOINT LeftHandIndex4
												{
													OFFSET -0.000000 2.639709 -0.000000
													CHANNELS 3 Zrotation Yrotation Xrotation
													End Site
													{
														OFFSET 0.000000 0.000000 0.000000
													}
												}
											}
										}
									}
									JOINT LeftHandMiddle1
									{
										OFFSET -0.104102 9.502952 0.006768
										CHANNELS 3 Zrotation Yrotation Xrotation
										JOINT LeftHandMiddle2
										{
											OFFSET 0.000000 4.568727 0.000000
											CHANNELS 3 Zrotation Yrotation Xrotation
											JOINT LeftHandMiddle3
											{
												OFFSET -0.000000 3.654981 -0.000000
												CHANNELS 3 Zrotation Yrotation Xrotation
												JOINT LeftHandMiddle4
												{
													OFFSET 0.000000 2.741236 -0.000000
													CHANNELS 3 Zrotation Yrotation Xrotation
													End Site
													{
														OFFSET 0.000000 0.000000 0.000000
													}
												}
											}
										}
									}
									JOINT LeftHandRing1
									{
										OFFSET -0.086752 8.921708 -2.267442
										CHANNELS 3 Zrotation Yrotation Xrotation
										JOINT LeftHandRing2
										{
											OFFSET 0.000000 4.061090 0.000000
											CHANNELS 3 Zrotation Yrotation Xrotation
											JOINT LeftHandRing3
											{
												OFFSET -0.000000 3.654981 -0.000000
												CHANNELS 3 Zrotation Yrotation Xrotation
												JOINT LeftHandRing4
												{
													OFFSET 0.000000 2.741236 0.000000
													CHANNELS 3 Zrotation Yrotation Xrotation
													End Site
													{
														OFFSET 0.000000 0.000000 0.000000
													}
												}
											}
										}
									}
									JOINT LeftHandPinky1
									{
										OFFSET 0.173504 7.976997 -4.467199
										CHANNELS 3 Zrotation Yrotation Xrotation
										JOINT LeftHandPinky2
										{
											OFFSET 0.000000 3.350399 0.000000
											CHANNELS 3 Zrotation Yrotation Xrotation
											JOINT LeftHandPinky3
											{
												OFFSET -0.000000 2.842763 -0.000000
												CHANNELS 3 Zrotation Yrotation Xrotation
												JOINT LeftHandPinky4
												{
													OFFSET -0.000000 2.639709 0.000000
													CHANNELS 3 Zrotation Yrotation Xrotation
													End Site
													{
														OFFSET 0.000000 0.000000 0.000000
													}
												}
											}
										}
									}
									JOINT LeftForeArmEnd
									{
										OFFSET 0.000000 0.000000 0.000000
										CHANNELS 3 Zrotation Yrotation Xrotation
										End Site
										{
											OFFSET 0.000000 0.000000 0.000000
										}
									}
								}
								JOINT LeftArmEnd
								{
									OFFSET 0.000000 0.000000 0.000000
									CHANNELS 3 Zrotation Yrotation Xrotation
									End Site
									{
										OFFSET 0.000000 0.000000 0.000000
									}
								}
							}
						}
					}
				}
			}
		}
	}
	JOINT RightUpLeg
	{
		OFFSET -11.289943 -0.000000 -0.000000
		CHANNELS 3 Zrotation Yrotation Xrotation
		JOINT RightLeg
		{
			OFFSET 0.000000 -38.200325 -0.000000
			CHANNELS 3 Zrotation Yrotation Xrotation
			JOINT RightFoot
			{
				OFFSET -0.000000 -39.900856 0.000000
				CHANNELS 3 Zrotation Yrotation Xrotation
				JOINT RightToeBase
				{
					OFFSET 0.000000 -0.000000 15.261641
					CHANNELS 3 Zrotation Yrotation Xrotation
					JOINT RightToeBaseEnd
					{
						OFFSET 0.000000 -0.000000 7.370709
						CHANNELS 3 Zrotation Yrotation Xrotation
						End Site
						{
							OFFSET 0.000000 0.000000 0.000000
						}
					}
				}
				JOINT RightLegEnd
				{
					OFFSET 0.000000 0.000000 0.000000
					CHANNELS 3 Zrotation Yrotation Xrotation
					End Site
					{
						OFFSET 0.000000 0.000000 0.000000
					}
				}
			}
			JOINT RightUpLegEnd
			{
				OFFSET 0.000000 0.000000 0.000000
				CHANNELS 3 Zrotation Yrotation Xrotation
				End Site
				{
					OFFSET 0.000000 0.000000 0.000000
				}
			}
		}
	}
	JOINT LeftUpLeg
	{
		OFFSET 11.315661 0.000000 0.000000
		CHANNELS 3 Zrotation Yrotation Xrotation
		JOINT LeftLeg
		{
			OFFSET 0.000000 -38.200325 -0.000000
			CHANNELS 3 Zrotation Yrotation Xrotation
			JOINT LeftFoot
			{
				OFFSET 0.000000 -39.900856 0.000000
				CHANNELS 3 Zrotation Yrotation Xrotation
				JOINT LeftToeBase
				{
					OFFSET -0.000000 0.000000 15.261641
					CHANNELS 3 Zrotation Yrotation Xrotation
					JOINT LeftToeBaseEnd
					{
						OFFSET 0.000000 -0.000000 7.539996
						CHANNELS 3 Zrotation Yrotation Xrotation
						End Site
						{
							OFFSET 0.000000 0.000000 0.000000
						}
					}
				}
				JOINT LeftLegEnd
				{
					OFFSET 0.000000 0.000000 0.000000
					CHANNELS 3 Zrotation Yrotation Xrotation
					End Site
					{
						OFFSET 0.000000 0.000000 0.000000
					}
				}
			}
			JOINT LeftUpLegEnd
			{
				OFFSET 0.000000 0.000000 0.000000
				CHANNELS 3 Zrotation Yrotation Xrotation
				End Site
				{
					OFFSET 0.000000 0.000000 0.000000
				}
			}
		}
	}
}
MOTION
Frames: 4
Frame Time: 0.016667
-30.967878 86.799881 28.460173 -4.873304 8.166667 -15.956371 1.997788 -0.547504 9.290294 1.011651 -0.017071 3.172640 5.125776 -0.955043 17.536058 3.524323 0.611908 5.748217 -5.543799 -0.316336 5.451132 -1.789705 -2.645649 -4.236063 -0.599905 0.332494 -22.379648 0.000000 0.000000 0.000000 93.849533 -0.769718 11.242425 54.388103 -27.682228 7.304113 0.041171 8.965356 26.199200 7.873154 21.548838 -2.600304 12.435407 -1.968609 39.088520 -0.000000 -0.000000 -30.240000 0.000000 -0.000000 -21.000000 0.000000 0.000000 0.000000 19.205553 16.786655 -9.506320 14.771986 -0.423188 -4.447816 14.772254 0.543762 -4.192844 0.000000 -0.000000 0.000000 18.884378 6.916014 -9.203777 13.924018 -0.793671 -1.689757 13.922723 0.176949 -1.449133 0.000000 -0.000000 0.000000 20.549284 -8.906718 -8.202028 13.393307 1.754451 2.092202 13.386988 -0.191191 1.629020 -0.000000 -0.000000 0.000000 21.318979 -25.730549 -8.839184 11.338651 3.471254 5.333674 11.317927 -0.450879 4.547833 -0.000000 0.000000 0.000000 -0.000000 0.000000 0.000000 -0.000000 0.000000 -0.000000 -90.832848 0.139578 14.850844 -54.146626 42.271030 22.825464 0.179290 -12.729934 37.777775 -5.513913 0.190206 -6.497689 -12.885296 1.993217 38.896786 -0.000000 -0.000000 -31.320000 0.000000 0.000000 -21.750000 0.000000 -0.000000 -0.000000 -25.333138 16.958855 -4.036222 -16.234512 -0.303897 4.877878 -16.235373 0.656229 4.598303 0.000000 0.000000 0.000000 -21.236237 6.975148 -4.740283 -14.381745 -0.775692 1.744174 -14.380558 0.189536 1.495808 0.000000 0.000000 0.000000 -15.946712 -8.986198 -3.328465 -11.445754 1.820469 -1.792275 -11.439934 -0.139785 -1.395471 -0.000000 -0.000000 0.000000 -10.281849 -25.945047 -4.067378 -7.842536 3.746943 -3.698941 -7.825723 -0.215754 -3.153568 -0.000000 -0.000000 0.000000 0.000000 -0.000000 -0.000000 0.000000 -0.000000 0.000000 9.302206 -2.562456 11.351065 0.015388 0.056956 14.517076 -3.883141 -18.473913 14.248561 -0.363019 0.624082 -17.963371 0.000000 -0.000000 -0.000000 -0.000000 -0.000000 -0.000000 0.000000 -0.000000 -0.000000 21.914896 34.593254 1.525804 0.155952 0.270984 29.920595 -6.818123 24.324928 15.828632 1.727684 -0.668501 -20.221125 0.000000 0.000000 -0.000000 0.000000 -0.000000 0.000000 0.000000 0.000000 0.000000 
-31.092281 86.785126 28.473816 -4.833226 7.965629 -15.756858 2.039004 -0.481092 9.181218 1.125479 -0.040381 3.047009 5.165657 -0.964324 17.689873 3.359930 0.633075 5.737948 -5.652667 -0.673183 5.609837 -1.871814 -3.076609 -4.132957 -0.439260 0.339734 -22.259747 0.000000 -0.000000 0.000000 93.938026 -0.792959 11.320701 53.861462 -27.419130 7.390045 0.039975 8.435552 26.143213 7.434588 21.873203 -3.461748 12.135555 -1.950834 39.216908 -0.000000 -0.000000 -29.520000 -0.000000 -0.000000 -20.500000 0.000000 0.000000 0.000000 17.256966 16.744892 -10.231907 13.604858 -0.510438 -4.102704 13.604758 0.461505 -3.867483 -0.000000 0.000000 -0.000000 17.306904 6.898086 -9.836858 12.879134 -0.823357 -1.565155 12.877828 0.151490 -1.342270 -0.000000 0.000000 -0.000000 19.622982 -8.898200 -8.696188 12.696693 1.779237 1.985176 12.690529 -0.171891 1.545679 -0.000000 0.000000 -0.000000 20.977501 -25.709257 -9.194106 11.017811 3.500731 5.184230 10.997303 -0.425736 4.420351 0.000000 0.000000 -0.000000 -0.000000 -0.000000 0.000000 -0.000000 -0.000000 -0.000000 -91.026131 0.191538 14.945907 -52.896152 42.508350 23.692944 0.160048 -12.788829 37.190403 -5.840049 -1.782230 -6.585609 -12.735312 1.985468 38.960350 -0.000000 -0.000000 -30.959999 0.000000 -0.000000 -21.500000 0.000000 0.000000 -0.000000 -24.923710 16.952181 -4.427614 -15.883452 -0.333538 4.774903 -15.884157 0.628282 4.501218 0.000000 0.000000 -0.000000 -20.957544 6.972748 -5.082510 -14.158771 -0.778421 1.717701 -14.157625 0.185884 1.473108 -0.000000 0.000000 -0.000000 -16.023619 -8.982300 -3.623693 -11.531214 1.817787 -1.805481 -11.525367 -0.141873 -1.405754 -0.000000 -0.000000 -0.000000 -10.641329 -25.934835 -4.353243 -8.156979 3.726252 -3.846482 -8.139685 -0.233398 -3.279385 -0.000000 -0.000000 -0.000000 0.000000 -0.000000 -0.000000 0.000000 0.000000 0.000000 9.327602 -2.629373 11.111193 0.016554 0.067923 14.613666 -4.004079 -18.204691 14.189004 -0.350627 0.608915 -17.955673 0.000000 -0.000000 -0.000000 -0.000000 -0.000000 -0.000000 0.000000 -0.000000 -0.000000 21.924911 35.072052 1.372840 0.136950 0.238240 29.894098 -6.624115 24.729490 16.026573 1.719703 -0.634232 -20.208853 0.000000 0.000000 -0.000000 0.000000 -0.000000 0.000000 0.000000 0.000000 -0.000000 
-31.195395 86.775284 28.502939 -4.804205 7.720247 -15.619912 2.008665 -0.501451 9.109235 1.191193 -0.054171 2.954094 5.264501 -0.985211 17.826401 3.324681 0.662255 5.707979 -5.770451 -0.777121 5.701998 -1.914096 -3.196635 -4.054424 -0.387975 0.324342 -22.099890 0.000000 0.000000 0.000000 93.912071 -0.791430 11.373256 53.305302 -27.031649 7.608574 0.031933 7.761513 25.916677 7.329983 22.512058 -4.073244 11.948190 -1.938966 39.297630 -0.000000 -0.000000 -29.070005 -0.000000 -0.000000 -20.187502 0.000000 -0.000000 -0.000000 16.244680 16.716656 -10.742409 13.023963 -0.551225 -3.930348 13.023711 0.423053 -3.704994 -0.000000 0.000000 -0.000000 16.498543 6.885332 -10.383266 12.362123 -0.836963 -1.503309 12.360818 0.139916 -1.289229 -0.000000 0.000000 -0.000000 19.255705 -8.885057 -9.254179 12.381604 1.789668 1.936674 12.375521 -0.163835 1.507910 0.000000 0.000000 -0.000000 21.077341 -25.671160 -9.780278 10.917904 3.509737 5.137668 10.897470 -0.418053 4.380632 0.000000 0.000000 -0.000000 -0.000000 0.000000 0.000000 -0.000000 -0.000000 0.000000 -91.287170 0.262366 15.031640 -52.235645 42.313221 24.204201 0.130410 -12.828738 36.428436 -6.319403 -3.511956 -6.654038 -12.716565 1.984487 38.968292 -0.000000 -0.000000 -30.914999 0.000000 -0.000000 -21.468750 0.000000 0.000000 -0.000000 -24.794254 16.946136 -4.710722 -15.741295 -0.345361 4.733158 -15.741940 0.617136 4.461861 -0.000000 -0.000000 -0.000000 -20.965534 6.970386 -5.320808 -14.144202 -0.778935 1.715972 -14.143068 0.185016 1.471623 -0.000000 -0.000000 -0.000000 -16.410873 -8.979224 -3.887078 -11.828835 1.808290 -1.851441 -11.822897 -0.149439 -1.441542 -0.000000 -0.000000 -0.000000 -11.264392 -25.921070 -4.755131 -8.675261 3.690377 -4.089467 -8.657226 -0.263991 -3.486603 -0.000000 -0.000000 -0.000000 0.000000 -0.000000 -0.000000 0.000000 -0.000000 0.000000 9.346103 -2.702902 10.960695 0.017755 0.077898 14.683118 -4.135457 -17.890322 14.152279 -0.340394 0.590559 -17.957026 0.000000 -0.000000 -0.000000 -0.000000 -0.000000 -0.000000 0.000000 -0.000000 -0.000000 21.968414 35.426929 1.325227 0.119314 0.207796 29.862762 -6.478224 25.157497 16.137993 1.722232 -0.610875 -20.097034 0.000000 -0.000000 -0.000000 0.000000 -0.000000 -0.000000 0.000000 0.000000 0.000000 
-31.275076 86.772537 28.537357 -4.783074 7.468448 -15.573000 1.951673 -0.556455 9.089735 1.214916 -0.067800 2.950471 5.380817 -1.062873 17.923016 3.342230 0.669387 5.661335 -5.829221 -0.690696 5.784860 -1.892976 -3.046616 -3.987535 -0.428216 0.305814 -21.992676 0.000000 0.000000 0.000000 93.807892 -0.775847 11.452993 52.783184 -26.485718 7.994060 0.016113 7.063264 25.448526 7.533248 22.445152 -4.408213 11.835789 -1.931522 39.346298 -0.000000 0.000000 -28.799999 -0.000000 0.000000 -20.000000 -0.000000 -0.000000 -0.000000 15.756911 16.704163 -11.019601 12.750051 -0.569848 -3.848948 12.749735 0.405496 -3.628255 -0.000000 0.000000 -0.000000 16.113651 6.878558 -10.740319 12.124053 -0.843391 -1.474790 12.122753 0.134308 -1.264770 -0.000000 0.000000 -0.000000 19.152031 -8.874281 -9.665869 12.265454 1.793927 1.918777 12.259398 -0.160452 1.493975 0.000000 0.000000 -0.000000 21.299725 -25.638006 -10.258646 10.927798 3.508849 5.142280 10.907356 -0.418811 4.384566 0.000000 0.000000 -0.000000 -0.000000 -0.000000 0.000000 -0.000000 -0.000000 -0.000000 -91.509956 0.324322 15.132409 -52.281467 41.630352 24.226059 0.094603 -12.760403 35.655560 -6.683069 -4.880144 -6.763859 -12.735312 1.985468 38.960350 -0.000000 -0.000000 -30.959999 0.000000 -0.000000 -21.500000 0.000000 0.000000 -0.000000 -24.815756 16.940178 -4.952316 -15.708501 -0.348073 4.723524 -15.709132 0.614579 4.452778 -0.000000 -0.000000 -0.000000 -21.085468 6.967901 -5.516365 -14.211208 -0.778853 1.723928 -14.210070 0.185119 1.478443 -0.000000 -0.000000 -0.000000 -16.828186 -8.977407 -4.094233 -12.141226 1.798066 -1.899629 -12.135203 -0.157229 -1.479065 -0.000000 -0.000000 -0.000000 -11.862598 -25.910978 -5.088040 -9.157640 3.655005 -4.315386 -9.138974 -0.294156 -3.679276 -0.000000 -0.000000 -0.000000 0.000000 -0.000000 -0.000000 -0.000000 0.000000 0.000000 9.361820 -2.755983 10.936303 0.018948 0.085103 14.692633 -4.258302 -17.599327 14.149708 -0.332659 0.574383 -17.969458 0.000000 -0.000000 -0.000000 -0.000000 -0.000000 -0.000000 0.000000 -0.000000 -0.000000 22.034395 35.545559 1.398753 0.106164 0.185288 29.809685 -6.413875 25.597202 16.187555 1.734703 -0.600971 -19.927885 0.000000 -0.000000 -0.000000 0.000000 0.000000 -0.000000 0.000000 0.000000 0.000000 
